/* XPM */
static char *aa335875ad6c4aa69c29680eed37d53fBRl7LsJB2zzueXEa[] = {
/* columns rows colors chars-per-pixel */
"32 32 8 1 ",
"  c black",
". c #40264D",
"X c #563767",
"o c #644574",
"O c #D8A038",
"+ c #F8F800",
"@ c #F8D820",
"# c #FFFFAE",
/* pixels */
"................................",
"...oooooooooo......oooooooooo...",
"..oXXXXXXXXXXo....oXXXXXXXXXXo..",
".oXXXXXXXXXXXXo..oXXXXXXXXXXXXo.",
".oXXXXXXXXXXXXo..oXXXXXXXXXXXXo.",
".oXXXXXXXXXXXXo..oXXXXXXXXXXXXo.",
".oXXXXXXXXXXXXo..oXXXXXXXXXXXXo.",
".oXXXXXXXXXXXXo..oXXXXXXXXXXXXo.",
".oXXXXXXXXXXXX    XXXXXXXXXXXXo.",
".oXXXXXXXXXX  ####  XXXXXXXXXXo.",
".oXXXXXXXXX ##@@@@@O XXXXXXXXXo.",
".oXXXXXXXXX #@+##+@O XXXXXXXXXo.",
".oXXXXXXXX #@+#+@ +@O XXXXXXXXo.",
".oXXXXXXXX #@+#+@ +@O XXXXXXXXo.",
"..oXXXXXXX #@+#+@ +@O XXXXXXXo..",
"...ooooooo #@+#+@ +@O ooooooo...",
".......... #@+#+@ +@O ..........",
"...ooooooo #@+#+@ +@O ooooooo...",
"..oXXXXXXX #@+#@@ +@O XXXXXXXo..",
".oXXXXXXXX #@+#@@ +@O XXXXXXXXo.",
".oXXXXXXXXX @++  +@O XXXXXXXXXo.",
".oXXXXXXXXX @@@@@@OO XXXXXXXXXo.",
".oXXXXXXXXXX  OOOO  XXXXXXXXXXo.",
".oXXXXXXXXXXXX    XXXXXXXXXXXXo.",
".oXXXXXXXXXXXXo..oXXXXXXXXXXXXo.",
".oXXXXXXXXXXXXo..oXXXXXXXXXXXXo.",
".oXXXXXXXXXXXXo..oXXXXXXXXXXXXo.",
".oXXXXXXXXXXXXo..oXXXXXXXXXXXXo.",
".ooXXXXXXXXXXXo..oXXXXXXXXXXXXo.",
"..ooXXXXXXXXXo....oXXXXXXXXXXo..",
"...oooooooooo......oooooooooo...",
"................................"
};
